# xmcd
#
# Track frame offsets:
#	150
#	8850
#	18757
#	32385
#	46387
#	56622
#	67542
#	78512
#	88502
#	102787
#	117412
#	131637
#
# Disc length: 1968 seconds
#
# Revision: 0
# Processed by: cddbd v1.5.1PL0 Copyright (c) Steve Scherf et al.
# Submitted via: dBpowerAMP V4.0
#
DISCID=8607ae0c
DTITLE=Mac Wiseman - The Lost Album (1964)
DYEAR=1900
DGENRE=Bluegrass
TTITLE0=Mother Knows Best
TTITLE1=Heads You Win Tails I Lose
TTITLE2=Sweet Summers Gone Away
TTITLE3=They're All Gone Home But One
TTITLE4=Dark Hollow
TTITLE5=If I Could Live That Way
TTITLE6=Blue Grass Music's Really Gone To Town
TTITLE7=Old Pair Of Shoes
TTITLE8=The Mole
TTITLE9=Katie Waits For Me
TTITLE10=Brother Joe
TTITLE11=Brush It Off
EXTD=
EXTT0=
EXTT1=
EXTT2=
EXTT3=
EXTT4=
EXTT5=
EXTT6=
EXTT7=
EXTT8=
EXTT9=
EXTT10=
EXTT11=
PLAYORDER=
